<svg width="19" height="24" viewBox="0 0 19 24" fill="none" xmlns="http://www.w3.org/2000/svg">
<path d="M16.0688 8.89654C16.0688 7.1955 15.3931 5.56413 14.1903 4.36131C12.9875 3.15849 11.3561 2.48275 9.65505 2.48275C7.95401 2.48275 6.32264 3.15849 5.11982 4.36131C3.917 5.56413 3.24126 7.1955 3.24126 8.89654V17.4483H16.0688V8.89654ZM18.2068 18.1613L18.6344 18.731C18.6939 18.8104 18.7302 18.9049 18.7391 19.0037C18.748 19.1026 18.7292 19.202 18.6848 19.2907C18.6404 19.3795 18.5722 19.4542 18.4878 19.5064C18.4033 19.5586 18.306 19.5862 18.2068 19.5862H1.10333C1.00407 19.5862 0.906772 19.5586 0.822336 19.5064C0.737901 19.4542 0.669665 19.3795 0.625275 19.2907C0.580884 19.202 0.562094 19.1026 0.571008 19.0037C0.579922 18.9049 0.616188 18.8104 0.675744 18.731L1.10333 18.1613V8.89654C1.10333 6.62848 2.00431 4.45332 3.60807 2.84956C5.21183 1.2458 7.387 0.344818 9.65505 0.344818C11.9231 0.344818 14.0983 1.2458 15.702 2.84956C17.3058 4.45332 18.2068 6.62848 18.2068 8.89654V18.1613ZM6.98264 20.6552H12.3275C12.3275 21.3639 12.0459 22.0437 11.5447 22.5448C11.0436 23.046 10.3638 23.3276 9.65505 23.3276C8.94629 23.3276 8.26655 23.046 7.76537 22.5448C7.2642 22.0437 6.98264 21.3639 6.98264 20.6552Z" fill="black"/>
</svg>
