<svg width="17" height="18" viewBox="0 0 17 18" fill="none" xmlns="http://www.w3.org/2000/svg">
<path d="M5.75369 1C5.75369 0.585786 5.4179 0.25 5.00369 0.25C4.58948 0.25 4.25369 0.585786 4.25369 1H5.75369ZM4.25369 3.81583C4.25369 4.23004 4.58948 4.56583 5.00369 4.56583C5.4179 4.56583 5.75369 4.23004 5.75369 3.81583H4.25369ZM11.722 3.81583C11.722 4.23004 12.0578 4.56583 12.472 4.56583C12.8862 4.56583 13.222 4.23004 13.222 3.81583H11.722ZM13.222 1.00003C13.222 0.585813 12.8862 0.250027 12.472 0.250027C12.0578 0.250027 11.722 0.585813 11.722 1.00003H13.222ZM1.26954 14.1994L2.01954 14.1994L1.26954 14.1994ZM1.26954 4.86398L2.01954 4.86398V4.86398H1.26954ZM4.25369 1V3.81583H5.75369V1H4.25369ZM12.472 2.81336H13.4056V1.31336H12.472V2.81336ZM11.722 2.06336V3.81583H13.222V2.06336H11.722ZM13.222 2.06336V1.00003H11.722V2.06336H13.222ZM0.519535 14.1994C0.519532 16.1603 2.1092 17.75 4.07015 17.75V16.25C2.93763 16.25 2.01953 15.3319 2.01954 14.1994L0.519535 14.1994ZM15.4562 14.1994C15.4562 15.3319 14.5381 16.25 13.4056 16.25V17.75C15.3665 17.75 16.9562 16.1603 16.9562 14.1994H15.4562ZM16.9562 4.86398C16.9562 2.90303 15.3665 1.31336 13.4056 1.31336V2.81336C14.5381 2.81336 15.4562 3.73146 15.4562 4.86398H16.9562ZM2.01954 4.86398C2.01954 3.73146 2.93764 2.81336 4.07016 2.81336V1.31336C2.10921 1.31336 0.519542 2.90303 0.519542 4.86398H2.01954ZM1.26953 7.58312H16.2062V6.08312H1.26953V7.58312ZM15.4562 4.86398V14.1994H16.9562V4.86398H15.4562ZM2.01954 14.1994L2.01954 4.86398L0.519542 4.86398L0.519535 14.1994L2.01954 14.1994ZM4.07016 2.81336H12.472V1.31336H4.07016V2.81336ZM13.4056 16.25H4.07015V17.75H13.4056V16.25Z" fill="#131214"/>
</svg>
