<svg width="177" height="591" viewBox="0 0 177 591" fill="none" xmlns="http://www.w3.org/2000/svg">
<rect x="-28.8619" y="0.9655" width="205.241" height="42.7586" rx="21.3793" fill="white"/>
<g clip-path="url(#clip0_113_150)">
<path d="M47.0345 30.6426C47.0345 30.8946 46.9344 31.1363 46.7562 31.3145C46.578 31.4926 46.3363 31.5928 46.0843 31.5928H30.8812C30.6292 31.5928 30.3875 31.4926 30.2093 31.3145C30.0311 31.1363 29.931 30.8946 29.931 30.6426V20.656C29.9309 20.5113 29.9639 20.3683 30.0275 20.2382C30.0911 20.1082 30.1835 19.9943 30.2978 19.9054L37.8993 13.9933C38.0661 13.8636 38.2714 13.7931 38.4828 13.7931C38.6941 13.7931 38.8994 13.8636 39.0662 13.9933L46.6677 19.9054C46.782 19.9943 46.8745 20.1082 46.938 20.2382C47.0016 20.3683 47.0346 20.5113 47.0345 20.656V30.6426ZM45.1341 29.6924V21.1197L38.4828 15.9469L31.8314 21.1197V29.6924H45.1341ZM33.7318 25.8916H43.2337V27.792H33.7318V25.8916Z" fill="#0A8ED9"/>
</g>
<path d="M88.6339 16.5806V28.724H87.0946V23.1996H80.4072V28.724H78.8679V16.5806H80.4072V21.8314H87.0946V16.5806H88.6339ZM95.0549 28.8951C94.3822 28.8951 93.7722 28.7754 93.2249 28.5359C92.6776 28.2851 92.2044 27.9487 91.8053 27.5268C91.4062 27.0935 91.0983 26.5975 90.8817 26.0388C90.6651 25.4801 90.5567 24.8929 90.5567 24.2771C90.5567 23.65 90.6651 23.0571 90.8817 22.4984C91.0983 21.9397 91.4062 21.4494 91.8053 21.0275C92.2044 20.5942 92.6776 20.2578 93.2249 20.0184C93.7836 19.7675 94.3936 19.6421 95.0549 19.6421C95.7277 19.6421 96.3377 19.7675 96.885 20.0184C97.4323 20.2578 97.9055 20.5942 98.3046 21.0275C98.7151 21.4494 99.0286 21.9397 99.2453 22.4984C99.4619 23.0571 99.5702 23.65 99.5702 24.2771C99.5702 24.8929 99.4619 25.4801 99.2453 26.0388C99.0286 26.5975 98.7208 27.0935 98.3217 27.5268C97.9226 27.9487 97.4437 28.2851 96.885 28.5359C96.3377 28.7754 95.7277 28.8951 95.0549 28.8951ZM92.096 24.2943C92.096 24.91 92.2272 25.4687 92.4894 25.9704C92.7631 26.4721 93.1222 26.8712 93.5669 27.1676C94.0116 27.4527 94.5076 27.5952 95.0549 27.5952C95.6022 27.5952 96.0982 27.447 96.5429 27.1505C96.999 26.8541 97.3582 26.455 97.6205 25.9533C97.8941 25.4402 98.0309 24.8758 98.0309 24.26C98.0309 23.6443 97.8941 23.0856 97.6205 22.5839C97.3582 22.0822 96.999 21.6831 96.5429 21.3867C96.0982 21.0902 95.6022 20.942 95.0549 20.942C94.5076 20.942 94.0116 21.0959 93.5669 21.4038C93.1222 21.7002 92.7631 22.0993 92.4894 22.601C92.2272 23.1027 92.096 23.6671 92.096 24.2943ZM114.854 28.724H113.349V23.7298C113.349 22.7948 113.195 22.105 112.888 21.6603C112.591 21.2156 112.146 20.9933 111.553 20.9933C110.949 20.9933 110.402 21.2156 109.912 21.6603C109.421 22.0936 109.073 22.658 108.868 23.3536V28.724H107.363V23.7298C107.363 22.7834 107.215 22.0936 106.918 21.6603C106.622 21.2156 106.177 20.9933 105.584 20.9933C104.991 20.9933 104.444 21.2099 103.942 21.6432C103.452 22.0651 103.104 22.6295 102.899 23.3365V28.724H101.394V19.796H102.762V21.7116C103.127 21.0503 103.6 20.5429 104.182 20.1894C104.763 19.8245 105.419 19.6421 106.149 19.6421C106.89 19.6421 107.483 19.8474 107.928 20.2578C108.372 20.6569 108.646 21.1757 108.749 21.8142C109.148 21.1073 109.632 20.5714 110.202 20.2065C110.772 19.8302 111.422 19.6421 112.152 19.6421C112.665 19.6421 113.093 19.739 113.435 19.9329C113.788 20.1153 114.068 20.3776 114.273 20.7196C114.478 21.0503 114.626 21.4437 114.718 21.8998C114.809 22.3559 114.854 22.8519 114.854 23.3878V28.724ZM121.146 28.8951C120.473 28.8951 119.857 28.7754 119.298 28.5359C118.751 28.2851 118.272 27.9487 117.862 27.5268C117.463 27.0935 117.149 26.5975 116.921 26.0388C116.704 25.4801 116.596 24.8872 116.596 24.26C116.596 23.4163 116.79 22.6466 117.178 21.9511C117.565 21.2555 118.101 20.6968 118.785 20.2749C119.481 19.8531 120.273 19.6421 121.163 19.6421C122.063 19.6421 122.845 19.8588 123.506 20.292C124.179 20.7139 124.697 21.2726 125.062 21.9682C125.439 22.6523 125.627 23.3935 125.627 24.1916C125.627 24.3057 125.621 24.4197 125.61 24.5337C125.61 24.6363 125.604 24.7161 125.592 24.7731H118.187C118.232 25.3547 118.392 25.8735 118.666 26.3296C118.951 26.7743 119.316 27.1277 119.76 27.39C120.205 27.6408 120.684 27.7663 121.197 27.7663C121.744 27.7663 122.257 27.6294 122.736 27.3558C123.227 27.0821 123.563 26.7229 123.745 26.2783L125.045 26.6374C124.851 27.0707 124.561 27.4584 124.173 27.8005C123.797 28.1425 123.346 28.4105 122.822 28.6043C122.309 28.7982 121.75 28.8951 121.146 28.8951ZM118.135 23.7298H124.224C124.179 23.1483 124.013 22.6352 123.728 22.1905C123.443 21.7458 123.078 21.3981 122.634 21.1472C122.189 20.8964 121.699 20.7709 121.163 20.7709C120.638 20.7709 120.154 20.8964 119.709 21.1472C119.264 21.3981 118.899 21.7458 118.614 22.1905C118.341 22.6352 118.181 23.1483 118.135 23.7298Z" fill="#0A8ED9"/>
<path d="M79.0693 244.939C79.0693 245.543 78.9153 246.085 78.6075 246.564C78.2996 247.031 77.8834 247.402 77.3589 247.675C76.8458 247.938 76.2814 248.069 75.6657 248.069H69.936V235.925H75.7854C76.3555 235.925 76.8458 236.079 77.2563 236.387C77.6782 236.684 77.9975 237.071 78.2141 237.55C78.4421 238.018 78.5562 238.508 78.5562 239.021C78.5562 239.625 78.4022 240.184 78.0944 240.697C77.7865 241.21 77.3589 241.592 76.8116 241.843C77.5072 242.048 78.0545 242.43 78.4535 242.989C78.864 243.548 79.0693 244.198 79.0693 244.939ZM77.872 244.734C77.872 244.323 77.7808 243.947 77.5984 243.605C77.4159 243.251 77.1651 242.966 76.8458 242.75C76.538 242.533 76.1845 242.425 75.7854 242.425H71.1333V247.026H75.6657C76.0762 247.026 76.4467 246.917 76.7774 246.701C77.1081 246.484 77.3703 246.205 77.5642 245.863C77.7694 245.509 77.872 245.133 77.872 244.734ZM71.1333 236.969V241.45H75.3065C75.7056 241.45 76.0591 241.347 76.3669 241.142C76.6748 240.925 76.9199 240.646 77.1024 240.304C77.2848 239.962 77.376 239.597 77.376 239.209C77.376 238.799 77.2905 238.428 77.1195 238.098C76.9484 237.755 76.7147 237.482 76.4182 237.277C76.1218 237.071 75.7854 236.969 75.4091 236.969H71.1333ZM84.8847 248.24C84.2462 248.24 83.6533 248.12 83.106 247.881C82.57 247.63 82.1025 247.294 81.7035 246.872C81.3158 246.438 81.0136 245.948 80.797 245.401C80.5803 244.842 80.472 244.255 80.472 243.639C80.472 243.001 80.5803 242.408 80.797 241.86C81.0136 241.302 81.3215 240.811 81.7206 240.389C82.1197 239.956 82.5871 239.62 83.1231 239.38C83.6704 239.129 84.2633 239.004 84.9018 239.004C85.5403 239.004 86.1276 239.129 86.6635 239.38C87.1994 239.62 87.6669 239.956 88.066 240.389C88.465 240.811 88.7729 241.302 88.9895 241.86C89.2062 242.408 89.3145 243.001 89.3145 243.639C89.3145 244.255 89.2062 244.842 88.9895 245.401C88.7729 245.948 88.465 246.438 88.066 246.872C87.6783 247.294 87.2108 247.63 86.6635 247.881C86.1276 248.12 85.5346 248.24 84.8847 248.24ZM81.6522 243.656C81.6522 244.318 81.7947 244.922 82.0797 245.469C82.3762 246.005 82.7696 246.433 83.2599 246.752C83.7502 247.06 84.2918 247.214 84.8847 247.214C85.4776 247.214 86.0192 247.054 86.5095 246.735C86.9998 246.416 87.3932 245.982 87.6897 245.435C87.9861 244.876 88.1344 244.272 88.1344 243.622C88.1344 242.961 87.9861 242.356 87.6897 241.809C87.3932 241.262 86.9998 240.828 86.5095 240.509C86.0192 240.19 85.4776 240.03 84.8847 240.03C84.2918 240.03 83.7502 240.196 83.2599 240.526C82.781 240.857 82.3933 241.296 82.0968 241.843C81.8004 242.379 81.6522 242.983 81.6522 243.656ZM95.0566 248.24C94.4181 248.24 93.8251 248.12 93.2778 247.881C92.7419 247.63 92.2744 247.294 91.8753 246.872C91.4877 246.438 91.1855 245.948 90.9689 245.401C90.7522 244.842 90.6439 244.255 90.6439 243.639C90.6439 243.001 90.7522 242.408 90.9689 241.86C91.1855 241.302 91.4934 240.811 91.8925 240.389C92.2915 239.956 92.759 239.62 93.2949 239.38C93.8422 239.129 94.4352 239.004 95.0737 239.004C95.7122 239.004 96.2994 239.129 96.8353 239.38C97.3713 239.62 97.8388 239.956 98.2378 240.389C98.6369 240.811 98.9448 241.302 99.1614 241.86C99.3781 242.408 99.4864 243.001 99.4864 243.639C99.4864 244.255 99.3781 244.842 99.1614 245.401C98.9448 245.948 98.6369 246.438 98.2378 246.872C97.8502 247.294 97.3827 247.63 96.8353 247.881C96.2994 248.12 95.7065 248.24 95.0566 248.24ZM91.824 243.656C91.824 244.318 91.9666 244.922 92.2516 245.469C92.5481 246.005 92.9415 246.433 93.4318 246.752C93.9221 247.06 94.4637 247.214 95.0566 247.214C95.6495 247.214 96.1911 247.054 96.6814 246.735C97.1717 246.416 97.5651 245.982 97.8616 245.435C98.158 244.876 98.3062 244.272 98.3062 243.622C98.3062 242.961 98.158 242.356 97.8616 241.809C97.5651 241.262 97.1717 240.828 96.6814 240.509C96.1911 240.19 95.6495 240.03 95.0566 240.03C94.4637 240.03 93.9221 240.196 93.4318 240.526C92.9529 240.857 92.5652 241.296 92.2687 241.843C91.9723 242.379 91.824 242.983 91.824 243.656ZM107.794 248.069L104.493 243.502L102.595 245.281V248.069H101.431V235.583H102.595V244.032L107.64 239.175H108.923L105.28 242.818L109.06 248.069H107.794ZM123.756 248.069H122.593V243.092C122.593 242.054 122.428 241.29 122.097 240.8C121.766 240.31 121.276 240.064 120.626 240.064C119.954 240.064 119.349 240.304 118.813 240.783C118.289 241.262 117.918 241.877 117.702 242.63V248.069H116.539V243.092C116.539 242.043 116.379 241.279 116.06 240.8C115.74 240.31 115.25 240.064 114.589 240.064C113.927 240.064 113.329 240.298 112.793 240.766C112.257 241.233 111.881 241.849 111.664 242.613V248.069H110.501V239.158H111.561V241.176C111.938 240.481 112.417 239.945 112.998 239.568C113.591 239.192 114.247 239.004 114.965 239.004C115.706 239.004 116.305 239.215 116.761 239.637C117.217 240.059 117.496 240.612 117.599 241.296C118.009 240.543 118.5 239.973 119.07 239.586C119.651 239.198 120.307 239.004 121.037 239.004C121.538 239.004 121.96 239.095 122.302 239.278C122.656 239.46 122.935 239.722 123.14 240.064C123.357 240.395 123.511 240.8 123.602 241.279C123.705 241.746 123.756 242.271 123.756 242.852V248.069ZM125.5 245.503C125.5 244.945 125.659 244.466 125.979 244.067C126.298 243.656 126.737 243.343 127.296 243.126C127.866 242.898 128.521 242.784 129.263 242.784C129.696 242.784 130.146 242.818 130.614 242.887C131.081 242.955 131.497 243.058 131.862 243.194V242.442C131.862 241.689 131.64 241.091 131.195 240.646C130.751 240.201 130.135 239.979 129.348 239.979C128.869 239.979 128.396 240.07 127.928 240.253C127.472 240.424 126.994 240.68 126.492 241.022L126.047 240.201C126.629 239.802 127.199 239.506 127.757 239.312C128.316 239.107 128.886 239.004 129.468 239.004C130.562 239.004 131.429 239.318 132.068 239.945C132.706 240.572 133.025 241.438 133.025 242.544V246.666C133.025 246.826 133.06 246.946 133.128 247.026C133.196 247.094 133.305 247.134 133.453 247.145V248.069C133.327 248.08 133.219 248.092 133.128 248.103C133.037 248.114 132.968 248.114 132.923 248.103C132.638 248.092 132.421 248 132.273 247.829C132.125 247.658 132.045 247.476 132.033 247.282L132.016 246.632C131.617 247.145 131.098 247.544 130.46 247.829C129.821 248.103 129.171 248.24 128.51 248.24C127.94 248.24 127.421 248.12 126.954 247.881C126.498 247.63 126.138 247.299 125.876 246.889C125.625 246.467 125.5 246.005 125.5 245.503ZM131.469 246.187C131.594 246.028 131.691 245.874 131.76 245.726C131.828 245.577 131.862 245.446 131.862 245.332V244.032C131.475 243.884 131.07 243.77 130.648 243.69C130.237 243.611 129.821 243.571 129.399 243.571C128.567 243.571 127.894 243.736 127.381 244.067C126.868 244.397 126.612 244.848 126.612 245.418C126.612 245.749 126.697 246.062 126.868 246.359C127.039 246.644 127.29 246.883 127.621 247.077C127.951 247.259 128.339 247.351 128.784 247.351C129.342 247.351 129.861 247.242 130.34 247.026C130.83 246.809 131.207 246.53 131.469 246.187ZM139.985 240.184C139.21 240.207 138.526 240.424 137.933 240.834C137.351 241.245 136.941 241.809 136.701 242.527V248.069H135.538V239.158H136.633V241.296C136.941 240.669 137.345 240.161 137.847 239.774C138.36 239.386 138.902 239.169 139.472 239.124C139.586 239.112 139.683 239.107 139.763 239.107C139.854 239.107 139.928 239.112 139.985 239.124V240.184ZM147.897 248.069L144.596 243.502L142.697 245.281V248.069H141.534V235.583H142.697V244.032L147.743 239.175H149.026L145.383 242.818L149.163 248.069H147.897Z" fill="white"/>
<g clip-path="url(#clip1_113_150)">
<path d="M32.8709 234.138H44.0951C44.3077 234.138 44.5116 234.222 44.662 234.373C44.8123 234.523 44.8968 234.727 44.8968 234.94V250.287C44.8969 250.359 44.8778 250.429 44.8414 250.491C44.805 250.553 44.7528 250.604 44.6901 250.638C44.6274 250.673 44.5565 250.69 44.4848 250.688C44.4132 250.686 44.3434 250.665 44.2827 250.627L38.483 246.99L32.6833 250.626C32.6227 250.664 32.553 250.685 32.4814 250.688C32.4098 250.69 32.339 250.672 32.2763 250.638C32.2136 250.603 32.1613 250.552 32.1249 250.491C32.0885 250.429 32.0693 250.359 32.0692 250.287V234.94C32.0692 234.727 32.1537 234.523 32.304 234.373C32.4544 234.222 32.6583 234.138 32.8709 234.138ZM43.2934 235.741H33.6727V248.114L38.483 245.098L43.2934 248.114V235.741Z" fill="white"/>
</g>
<path d="M81.285 140.857H82.2941L87.3396 153H86.0739L84.5004 149.203H79.0444L77.488 153H76.2052L81.285 140.857ZM84.2268 148.262L81.781 142.259L79.301 148.262H84.2268ZM93.2023 153.171C92.5068 153.171 91.8626 152.994 91.2696 152.641C90.6767 152.276 90.2149 151.82 89.8843 151.273V153H88.841V140.515H90.004V145.953C90.4031 145.349 90.882 144.864 91.4407 144.5C91.9994 144.123 92.6493 143.935 93.3905 143.935C94.0176 143.935 94.5763 144.066 95.0666 144.329C95.5683 144.591 95.9959 144.944 96.3494 145.389C96.7028 145.822 96.9708 146.318 97.1532 146.877C97.3357 147.424 97.4269 147.989 97.4269 148.57C97.4269 149.197 97.3186 149.785 97.1019 150.332C96.8967 150.879 96.6002 151.37 96.2125 151.803C95.8249 152.225 95.3745 152.561 94.8614 152.812C94.3597 153.051 93.8067 153.171 93.2023 153.171ZM92.9287 152.145C93.4076 152.145 93.8523 152.048 94.2627 151.854C94.6732 151.66 95.0267 151.392 95.3232 151.05C95.6196 150.708 95.8477 150.326 96.0073 149.904C96.1669 149.471 96.2467 149.026 96.2467 148.57C96.2467 147.943 96.1099 147.356 95.8363 146.809C95.574 146.25 95.2034 145.805 94.7245 145.475C94.257 145.132 93.704 144.961 93.0655 144.961C92.6094 144.961 92.1818 145.064 91.7827 145.269C91.3951 145.475 91.0473 145.748 90.7394 146.09C90.443 146.421 90.1978 146.786 90.004 147.185V149.956C90.0496 150.263 90.1693 150.554 90.3632 150.828C90.557 151.09 90.7964 151.318 91.0815 151.512C91.378 151.706 91.6858 151.86 92.0051 151.974C92.3244 152.088 92.6322 152.145 92.9287 152.145ZM103.194 153.171C102.555 153.171 101.963 153.051 101.415 152.812C100.879 152.561 100.412 152.225 100.013 151.803C99.625 151.37 99.3229 150.879 99.1062 150.332C98.8896 149.773 98.7813 149.186 98.7813 148.57C98.7813 147.932 98.8896 147.339 99.1062 146.791C99.3229 146.233 99.6307 145.742 100.03 145.321C100.429 144.887 100.896 144.551 101.432 144.311C101.98 144.061 102.573 143.935 103.211 143.935C103.85 143.935 104.437 144.061 104.973 144.311C105.509 144.551 105.976 144.887 106.375 145.321C106.774 145.742 107.082 146.233 107.299 146.791C107.515 147.339 107.624 147.932 107.624 148.57C107.624 149.186 107.515 149.773 107.299 150.332C107.082 150.879 106.774 151.37 106.375 151.803C105.988 152.225 105.52 152.561 104.973 152.812C104.437 153.051 103.844 153.171 103.194 153.171ZM99.9614 148.587C99.9614 149.249 100.104 149.853 100.389 150.4C100.685 150.936 101.079 151.364 101.569 151.683C102.059 151.991 102.601 152.145 103.194 152.145C103.787 152.145 104.328 151.985 104.819 151.666C105.309 151.347 105.702 150.913 105.999 150.366C106.295 149.807 106.444 149.203 106.444 148.553C106.444 147.892 106.295 147.287 105.999 146.74C105.702 146.193 105.309 145.76 104.819 145.44C104.328 145.121 103.787 144.961 103.194 144.961C102.601 144.961 102.059 145.127 101.569 145.457C101.09 145.788 100.703 146.227 100.406 146.774C100.11 147.31 99.9614 147.915 99.9614 148.587ZM109.483 149.323V144.089H110.646V149.118C110.646 150.132 110.817 150.891 111.159 151.392C111.513 151.894 112.032 152.145 112.716 152.145C113.172 152.145 113.611 152.048 114.033 151.854C114.466 151.649 114.848 151.364 115.179 150.999C115.509 150.623 115.76 150.189 115.931 149.699V144.089H117.094V151.598C117.094 151.757 117.129 151.877 117.197 151.957C117.265 152.025 117.368 152.065 117.505 152.076V153C117.368 153.011 117.26 153.017 117.18 153.017C117.1 153.029 117.026 153.034 116.958 153.034C116.73 153.011 116.53 152.92 116.359 152.761C116.199 152.601 116.114 152.407 116.102 152.179L116.068 150.982C115.68 151.666 115.15 152.202 114.478 152.59C113.816 152.977 113.098 153.171 112.323 153.171C111.388 153.171 110.681 152.846 110.202 152.196C109.723 151.546 109.483 150.588 109.483 149.323ZM124 152.572C123.909 152.607 123.766 152.669 123.572 152.761C123.378 152.852 123.145 152.932 122.871 153C122.597 153.068 122.301 153.103 121.982 153.103C121.651 153.103 121.337 153.04 121.041 152.915C120.756 152.789 120.528 152.601 120.357 152.35C120.186 152.088 120.1 151.769 120.1 151.392V145.013H118.869V144.089H120.1V141.079H121.263V144.089H123.316V145.013H121.263V151.067C121.286 151.387 121.4 151.626 121.605 151.786C121.822 151.945 122.067 152.025 122.341 152.025C122.66 152.025 122.951 151.974 123.213 151.871C123.475 151.757 123.635 151.677 123.692 151.632L124 152.572ZM134.995 153.086C134.037 153.086 133.227 152.915 132.566 152.572C131.905 152.23 131.38 151.774 130.993 151.204C130.605 150.623 130.32 149.967 130.137 149.237C129.966 148.508 129.881 147.755 129.881 146.98V140.857H131.061V146.98C131.061 147.607 131.124 148.222 131.249 148.827C131.386 149.431 131.603 149.973 131.899 150.452C132.195 150.931 132.595 151.312 133.096 151.598C133.598 151.871 134.225 152.008 134.978 152.008C135.753 152.008 136.392 151.866 136.893 151.58C137.406 151.284 137.805 150.896 138.09 150.417C138.387 149.939 138.598 149.403 138.723 148.81C138.849 148.205 138.911 147.595 138.911 146.98V140.857H140.109V146.98C140.109 147.789 140.017 148.565 139.835 149.306C139.653 150.047 139.356 150.697 138.946 151.255C138.547 151.814 138.022 152.259 137.372 152.59C136.722 152.92 135.93 153.086 134.995 153.086ZM145.431 153.171C144.701 153.171 144.023 153.051 143.396 152.812C142.769 152.572 142.227 152.208 141.771 151.717L142.25 150.896C142.752 151.364 143.253 151.706 143.755 151.923C144.268 152.128 144.81 152.23 145.38 152.23C146.075 152.23 146.64 152.094 147.073 151.82C147.506 151.535 147.723 151.13 147.723 150.606C147.723 150.252 147.615 149.984 147.398 149.802C147.193 149.608 146.891 149.454 146.491 149.34C146.104 149.214 145.636 149.083 145.089 148.947C144.473 148.775 143.954 148.599 143.533 148.416C143.122 148.222 142.809 147.983 142.592 147.698C142.387 147.402 142.284 147.02 142.284 146.552C142.284 145.971 142.427 145.492 142.712 145.115C143.008 144.728 143.407 144.437 143.909 144.243C144.422 144.038 144.992 143.935 145.619 143.935C146.303 143.935 146.908 144.044 147.432 144.26C147.957 144.477 148.384 144.779 148.715 145.167L148.151 145.953C147.831 145.589 147.449 145.321 147.005 145.15C146.571 144.967 146.087 144.876 145.551 144.876C145.186 144.876 144.838 144.927 144.507 145.03C144.177 145.121 143.903 145.281 143.687 145.509C143.481 145.725 143.379 146.028 143.379 146.415C143.379 146.734 143.458 146.985 143.618 147.168C143.778 147.339 144.017 147.487 144.336 147.612C144.656 147.726 145.049 147.852 145.517 147.989C146.189 148.171 146.777 148.359 147.278 148.553C147.78 148.736 148.168 148.975 148.441 149.271C148.715 149.568 148.852 149.984 148.852 150.52C148.852 151.352 148.538 152.002 147.911 152.47C147.284 152.937 146.457 153.171 145.431 153.171Z" fill="white"/>
<path d="M71.1333 296.925V306.862H69.936V294.719H70.928L78.8982 304.844V294.736H80.0955V306.862H78.9838L71.1333 296.925ZM86.5717 307.033C85.7165 307.033 84.9525 306.822 84.2798 306.4C83.6185 305.978 83.0997 305.42 82.7234 304.724C82.3471 304.017 82.159 303.253 82.159 302.432C82.159 301.6 82.3471 300.836 82.7234 300.14C83.1111 299.433 83.6356 298.869 84.2969 298.447C84.9696 298.014 85.7279 297.797 86.5717 297.797C87.4268 297.797 88.1851 298.014 88.8464 298.447C89.5192 298.869 90.0437 299.433 90.4199 300.14C90.8076 300.836 91.0015 301.6 91.0015 302.432C91.0015 303.253 90.8133 304.017 90.4371 304.724C90.0608 305.42 89.5363 305.978 88.8635 306.4C88.2022 306.822 87.4382 307.033 86.5717 307.033ZM83.3391 302.449C83.3391 303.111 83.4816 303.715 83.7667 304.262C84.0632 304.798 84.4565 305.226 84.9468 305.545C85.4371 305.853 85.9788 306.007 86.5717 306.007C87.1646 306.007 87.7062 305.847 88.1965 305.528C88.6868 305.209 89.0802 304.775 89.3766 304.228C89.6731 303.681 89.8213 303.076 89.8213 302.415C89.8213 301.754 89.6731 301.149 89.3766 300.602C89.0802 300.055 88.6868 299.622 88.1965 299.302C87.7062 298.983 87.1646 298.823 86.5717 298.823C85.9902 298.823 85.4542 298.989 84.9639 299.319C84.4736 299.639 84.0803 300.072 83.7838 300.619C83.4874 301.167 83.3391 301.777 83.3391 302.449ZM97.0888 306.434C96.952 306.491 96.7011 306.594 96.3363 306.742C95.9714 306.89 95.5495 306.965 95.0706 306.965C94.5689 306.965 94.1299 306.822 93.7537 306.537C93.3774 306.252 93.1892 305.824 93.1892 305.254V298.875H91.9578V297.951H93.1892V294.941H94.3523V297.951H96.4047V298.875H94.3523V304.929C94.3751 305.26 94.4891 305.505 94.6943 305.665C94.911 305.813 95.1561 305.887 95.4298 305.887C95.7491 305.887 96.0341 305.836 96.285 305.733C96.5472 305.619 96.7126 305.539 96.781 305.494L97.0888 306.434ZM98.542 296.087V294.376H99.705V296.087H98.542ZM98.542 306.862V297.951H99.705V306.862H98.542ZM102.694 298.875H101.463V297.951H102.694V297.712C102.694 297.153 102.803 296.606 103.019 296.07C103.247 295.534 103.589 295.089 104.045 294.736C104.513 294.382 105.112 294.205 105.841 294.205C106.468 294.205 107.004 294.302 107.449 294.496C107.905 294.69 108.23 294.861 108.424 295.009L107.894 295.847C107.7 295.676 107.426 295.534 107.073 295.42C106.719 295.294 106.332 295.232 105.91 295.232C105.419 295.232 105.026 295.357 104.73 295.608C104.433 295.847 104.211 296.155 104.062 296.531C103.926 296.908 103.857 297.29 103.857 297.677V297.951H108.321V306.862H107.158V298.875H103.857V306.862H102.694V298.875ZM114.751 307.033C113.884 307.033 113.114 306.822 112.442 306.4C111.769 305.967 111.239 305.402 110.851 304.707C110.463 304 110.269 303.225 110.269 302.381C110.269 301.537 110.458 300.773 110.834 300.089C111.21 299.393 111.735 298.84 112.407 298.43C113.08 298.008 113.855 297.797 114.733 297.797C115.566 297.797 116.296 297.991 116.923 298.379C117.561 298.755 118.04 299.268 118.359 299.918L117.231 300.277C116.98 299.821 116.626 299.468 116.17 299.217C115.725 298.954 115.229 298.823 114.682 298.823C114.078 298.823 113.53 298.977 113.04 299.285C112.561 299.593 112.174 300.021 111.877 300.568C111.592 301.104 111.45 301.708 111.45 302.381C111.45 303.054 111.598 303.664 111.894 304.211C112.191 304.758 112.584 305.197 113.074 305.528C113.565 305.847 114.106 306.007 114.699 306.007C115.087 306.007 115.463 305.938 115.828 305.802C116.193 305.665 116.506 305.482 116.769 305.254C117.031 305.015 117.208 304.758 117.299 304.485L118.445 304.827C118.285 305.249 118.023 305.631 117.658 305.973C117.293 306.303 116.86 306.566 116.358 306.759C115.857 306.942 115.321 307.033 114.751 307.033ZM119.554 304.296C119.554 303.749 119.713 303.276 120.033 302.877C120.352 302.466 120.791 302.147 121.35 301.919C121.92 301.691 122.575 301.577 123.316 301.577C123.75 301.577 124.2 301.617 124.668 301.697C125.135 301.765 125.551 301.862 125.916 301.987V301.235C125.916 300.482 125.694 299.884 125.249 299.439C124.804 298.994 124.189 298.772 123.402 298.772C122.934 298.772 122.467 298.863 121.999 299.046C121.532 299.217 121.047 299.473 120.546 299.815L120.101 298.994C120.683 298.595 121.253 298.299 121.811 298.105C122.37 297.9 122.94 297.797 123.522 297.797C124.616 297.797 125.483 298.111 126.121 298.738C126.76 299.365 127.079 300.232 127.079 301.338V305.46C127.079 305.767 127.222 305.927 127.507 305.938V306.862C127.256 306.896 127.079 306.908 126.977 306.896C126.692 306.885 126.475 306.794 126.327 306.623C126.178 306.452 126.099 306.269 126.087 306.075L126.07 305.425C125.671 305.938 125.152 306.337 124.514 306.623C123.875 306.896 123.225 307.033 122.564 307.033C121.982 307.033 121.464 306.913 121.007 306.674C120.551 306.423 120.192 306.092 119.93 305.682C119.679 305.26 119.554 304.798 119.554 304.296ZM125.523 304.981C125.785 304.673 125.916 304.388 125.916 304.125V302.826C125.129 302.518 124.308 302.364 123.453 302.364C122.621 302.364 121.948 302.529 121.435 302.86C120.922 303.19 120.665 303.641 120.665 304.211C120.665 304.701 120.854 305.146 121.23 305.545C121.617 305.944 122.153 306.144 122.838 306.144C123.396 306.144 123.915 306.035 124.394 305.819C124.884 305.602 125.261 305.323 125.523 304.981ZM133.801 306.434C133.664 306.491 133.413 306.594 133.049 306.742C132.684 306.89 132.262 306.965 131.783 306.965C131.281 306.965 130.842 306.822 130.466 306.537C130.09 306.252 129.902 305.824 129.902 305.254V298.875H128.67V297.951H129.902V294.941H131.065V297.951H133.117V298.875H131.065V304.929C131.087 305.26 131.201 305.505 131.407 305.665C131.623 305.813 131.868 305.887 132.142 305.887C132.461 305.887 132.746 305.836 132.997 305.733C133.26 305.619 133.425 305.539 133.493 305.494L133.801 306.434ZM135.254 296.087V294.376H136.417V296.087H135.254ZM135.254 306.862V297.951H136.417V306.862H135.254ZM142.776 307.033C141.921 307.033 141.157 306.822 140.484 306.4C139.823 305.978 139.304 305.42 138.928 304.724C138.551 304.017 138.363 303.253 138.363 302.432C138.363 301.6 138.551 300.836 138.928 300.14C139.315 299.433 139.84 298.869 140.501 298.447C141.174 298.014 141.932 297.797 142.776 297.797C143.631 297.797 144.389 298.014 145.051 298.447C145.723 298.869 146.248 299.433 146.624 300.14C147.012 300.836 147.206 301.6 147.206 302.432C147.206 303.253 147.018 304.017 146.641 304.724C146.265 305.42 145.74 305.978 145.068 306.4C144.406 306.822 143.642 307.033 142.776 307.033ZM139.543 302.449C139.543 303.111 139.686 303.715 139.971 304.262C140.267 304.798 140.661 305.226 141.151 305.545C141.641 305.853 142.183 306.007 142.776 306.007C143.369 306.007 143.91 305.847 144.401 305.528C144.891 305.209 145.284 304.775 145.581 304.228C145.877 303.681 146.026 303.076 146.026 302.415C146.026 301.754 145.877 301.149 145.581 300.602C145.284 300.055 144.891 299.622 144.401 299.302C143.91 298.983 143.369 298.823 142.776 298.823C142.194 298.823 141.658 298.989 141.168 299.319C140.678 299.639 140.284 300.072 139.988 300.619C139.692 301.167 139.543 301.777 139.543 302.449ZM156.642 306.862H155.479V301.885C155.479 300.836 155.319 300.072 155 299.593C154.692 299.103 154.213 298.858 153.563 298.858C153.107 298.858 152.657 298.972 152.212 299.2C151.768 299.416 151.374 299.718 151.032 300.106C150.702 300.482 150.462 300.916 150.314 301.406V306.862H149.151V297.951H150.211V299.969C150.565 299.319 151.083 298.795 151.768 298.396C152.452 297.997 153.193 297.797 153.991 297.797C154.652 297.797 155.177 297.957 155.565 298.276C155.952 298.584 156.226 299.029 156.386 299.61C156.557 300.18 156.642 300.859 156.642 301.645V306.862Z" fill="white"/>
<path d="M43.2617 300.436C43.2617 299.012 42.7052 297.646 41.7146 296.639C40.7241 295.632 39.3806 295.067 37.9797 295.067C36.5788 295.067 35.2354 295.632 34.2448 296.639C33.2542 297.646 32.6978 299.012 32.6978 300.436V307.596H43.2617V300.436ZM45.0223 308.193L45.3744 308.67C45.4235 308.736 45.4533 308.815 45.4607 308.898C45.468 308.981 45.4526 309.064 45.416 309.138C45.3794 309.213 45.3232 309.275 45.2537 309.319C45.1842 309.363 45.104 309.386 45.0223 309.386H30.9371C30.8554 309.386 30.7752 309.363 30.7057 309.319C30.6362 309.275 30.58 309.213 30.5434 309.138C30.5069 309.064 30.4914 308.981 30.4987 308.898C30.5061 308.815 30.5359 308.736 30.585 308.67L30.9371 308.193V300.436C30.9371 298.537 31.6791 296.716 32.9998 295.374C34.3206 294.031 36.1119 293.277 37.9797 293.277C39.8475 293.277 41.6388 294.031 42.9596 295.374C44.2803 296.716 45.0223 298.537 45.0223 300.436V308.193ZM35.7789 310.281H40.1805C40.1805 310.874 39.9486 311.443 39.5359 311.863C39.1232 312.282 38.5634 312.518 37.9797 312.518C37.396 312.518 36.8362 312.282 36.4235 311.863C36.0108 311.443 35.7789 310.874 35.7789 310.281Z" fill="white"/>
<circle cx="42.7587" cy="295.069" r="3.2069" fill="#FA0E0E"/>
<g clip-path="url(#clip2_113_150)">
<path d="M34.4558 369.96L29.931 370.966L30.9367 366.441C30.2744 365.202 29.9289 363.819 29.931 362.414C29.931 357.691 33.7596 353.862 38.4828 353.862C43.2059 353.862 47.0345 357.691 47.0345 362.414C47.0345 367.137 43.2059 370.966 38.4828 370.966C37.078 370.968 35.6946 370.622 34.4558 369.96ZM34.7038 368.153L35.2622 368.452C36.2529 368.982 37.3594 369.258 38.4828 369.255C39.8359 369.255 41.1586 368.854 42.2836 368.102C43.4087 367.35 44.2856 366.282 44.8034 365.032C45.3212 363.782 45.4567 362.406 45.1927 361.079C44.9287 359.752 44.2771 358.533 43.3203 357.576C42.3636 356.619 41.1445 355.968 39.8174 355.704C38.4903 355.44 37.1148 355.575 35.8647 356.093C34.6146 356.611 33.5461 357.488 32.7944 358.613C32.0426 359.738 31.6414 361.061 31.6414 362.414C31.6414 363.555 31.9193 364.653 32.4452 365.634L32.7437 366.193L32.1836 368.713L34.7038 368.153Z" fill="white"/>
<circle cx="43.8276" cy="357.069" r="3.2069" fill="#FA0E0E"/>
</g>
<path d="M80.6941 367.793V357.907L76.2985 365.587H75.546L71.1333 357.907V367.793H69.936V355.65H71.1675L75.9051 363.962L80.677 355.65H81.8913V367.793H80.6941ZM88.4102 367.964C87.555 367.964 86.791 367.753 86.1183 367.331C85.4456 366.91 84.9154 366.345 84.5277 365.638C84.14 364.931 83.9462 364.156 83.9462 363.312C83.9462 362.48 84.1343 361.716 84.5106 361.02C84.8983 360.325 85.4285 359.772 86.1012 359.361C86.7739 358.939 87.5379 358.728 88.3931 358.728C89.271 358.728 90.0407 358.939 90.702 359.361C91.3634 359.783 91.8765 360.342 92.2413 361.037C92.6176 361.722 92.8057 362.474 92.8057 363.295C92.8057 363.477 92.8 363.631 92.7886 363.757H85.1605C85.2175 364.395 85.4 364.965 85.7078 365.467C86.0157 365.957 86.4091 366.351 86.888 366.647C87.3668 366.932 87.8914 367.075 88.4615 367.075C89.043 367.075 89.5903 366.927 90.1034 366.63C90.6165 366.334 90.9814 365.946 91.198 365.467L92.2071 365.741C92.0247 366.174 91.7396 366.562 91.352 366.904C90.9757 367.235 90.5367 367.497 90.035 367.691C89.5333 367.873 88.9917 367.964 88.4102 367.964ZM85.1263 362.919H91.7111C91.6655 362.28 91.4888 361.716 91.1809 361.226C90.8731 360.724 90.4797 360.336 90.0008 360.062C89.5219 359.777 88.9917 359.635 88.4102 359.635C87.8286 359.635 87.2984 359.777 86.8195 360.062C86.3406 360.336 85.9473 360.724 85.6394 361.226C85.3429 361.716 85.1719 362.28 85.1263 362.919ZM97.5248 367.964C96.7951 367.964 96.1166 367.845 95.4895 367.605C94.8738 367.354 94.3322 366.989 93.8647 366.51L94.3436 365.69C94.8453 366.157 95.347 366.499 95.8487 366.716C96.3618 366.921 96.9034 367.024 97.4735 367.024C98.1577 367.024 98.7164 366.887 99.1497 366.613C99.5943 366.328 99.8167 365.923 99.8167 365.399C99.8167 365.045 99.7084 364.777 99.4917 364.595C99.2865 364.401 98.9843 364.247 98.5852 364.133C98.1976 364.019 97.7301 363.888 97.1828 363.74C96.567 363.569 96.0482 363.392 95.6263 363.21C95.2159 363.016 94.9023 362.776 94.6857 362.491C94.4804 362.195 94.3778 361.813 94.3778 361.345C94.3778 360.775 94.5203 360.296 94.8054 359.909C95.1018 359.521 95.5009 359.23 96.0026 359.036C96.5157 358.831 97.0858 358.728 97.713 358.728C98.3971 358.728 99.0014 358.837 99.5259 359.053C100.05 359.27 100.478 359.572 100.809 359.96L100.244 360.747C99.9364 360.382 99.5544 360.114 99.0983 359.943C98.6537 359.76 98.1691 359.669 97.6446 359.669C97.2797 359.669 96.9319 359.72 96.6012 359.823C96.2706 359.914 95.9969 360.074 95.7803 360.302C95.575 360.519 95.4724 360.821 95.4724 361.208C95.4724 361.687 95.6492 362.018 96.0026 362.2C96.3561 362.383 96.892 362.577 97.6103 362.782C98.2831 362.964 98.8703 363.147 99.372 363.329C99.8737 363.512 100.261 363.757 100.535 364.065C100.809 364.361 100.946 364.777 100.946 365.313C100.946 366.146 100.632 366.796 100.005 367.263C99.3777 367.731 98.551 367.964 97.5248 367.964ZM105.793 367.964C105.063 367.964 104.384 367.845 103.757 367.605C103.142 367.354 102.6 366.989 102.132 366.51L102.611 365.69C103.113 366.157 103.615 366.499 104.116 366.716C104.63 366.921 105.171 367.024 105.741 367.024C106.425 367.024 106.984 366.887 107.417 366.613C107.862 366.328 108.084 365.923 108.084 365.399C108.084 365.045 107.976 364.777 107.76 364.595C107.554 364.401 107.252 364.247 106.853 364.133C106.465 364.019 105.998 363.888 105.451 363.74C104.835 363.569 104.316 363.392 103.894 363.21C103.484 363.016 103.17 362.776 102.953 362.491C102.748 362.195 102.646 361.813 102.646 361.345C102.646 360.775 102.788 360.296 103.073 359.909C103.37 359.521 103.769 359.23 104.27 359.036C104.784 358.831 105.354 358.728 105.981 358.728C106.665 358.728 107.269 358.837 107.794 359.053C108.318 359.27 108.746 359.572 109.076 359.96L108.512 360.747C108.204 360.382 107.822 360.114 107.366 359.943C106.921 359.76 106.437 359.669 105.912 359.669C105.547 359.669 105.2 359.72 104.869 359.823C104.538 359.914 104.265 360.074 104.048 360.302C103.843 360.519 103.74 360.821 103.74 361.208C103.74 361.687 103.917 362.018 104.27 362.2C104.624 362.383 105.16 362.577 105.878 362.782C106.551 362.964 107.138 363.147 107.64 363.329C108.141 363.512 108.529 363.757 108.803 364.065C109.076 364.361 109.213 364.777 109.213 365.313C109.213 366.146 108.9 366.796 108.273 367.263C107.645 367.731 106.819 367.964 105.793 367.964ZM110.417 365.228C110.417 364.68 110.577 364.207 110.896 363.808C111.216 363.398 111.655 363.078 112.213 362.85C112.783 362.622 113.439 362.508 114.18 362.508C114.613 362.508 115.064 362.548 115.531 362.628C115.999 362.696 116.415 362.793 116.78 362.919V362.166C116.78 361.414 116.557 360.815 116.113 360.37C115.668 359.926 115.052 359.703 114.266 359.703C113.798 359.703 113.331 359.795 112.863 359.977C112.396 360.148 111.911 360.405 111.409 360.747L110.965 359.926C111.546 359.527 112.116 359.23 112.675 359.036C113.234 358.831 113.804 358.728 114.385 358.728C115.48 358.728 116.347 359.042 116.985 359.669C117.624 360.296 117.943 361.163 117.943 362.269V366.391C117.943 366.699 118.085 366.858 118.37 366.87V367.793C118.12 367.827 117.943 367.839 117.84 367.827C117.555 367.816 117.339 367.725 117.19 367.554C117.042 367.383 116.962 367.2 116.951 367.006L116.934 366.357C116.535 366.87 116.016 367.269 115.377 367.554C114.739 367.827 114.089 367.964 113.428 367.964C112.846 367.964 112.327 367.845 111.871 367.605C111.415 367.354 111.056 367.024 110.794 366.613C110.543 366.191 110.417 365.729 110.417 365.228ZM116.386 365.912C116.649 365.604 116.78 365.319 116.78 365.057V363.757C115.993 363.449 115.172 363.295 114.317 363.295C113.485 363.295 112.812 363.46 112.299 363.791C111.786 364.122 111.529 364.572 111.529 365.142C111.529 365.632 111.717 366.077 112.093 366.476C112.481 366.875 113.017 367.075 113.701 367.075C114.26 367.075 114.779 366.967 115.258 366.75C115.748 366.533 116.124 366.254 116.386 365.912ZM124.03 367.913C123.415 367.913 122.85 367.788 122.337 367.537C121.835 367.286 121.396 366.949 121.02 366.528C120.655 366.094 120.37 365.604 120.165 365.057C119.96 364.509 119.857 363.945 119.857 363.363C119.857 362.531 120.034 361.767 120.387 361.072C120.741 360.365 121.225 359.8 121.841 359.378C122.468 358.945 123.187 358.728 123.996 358.728C124.76 358.728 125.421 358.922 125.98 359.31C126.55 359.698 127.029 360.176 127.417 360.747V358.882H128.46V367.827C128.46 368.66 128.261 369.355 127.862 369.914C127.462 370.473 126.932 370.895 126.271 371.18C125.61 371.465 124.886 371.607 124.099 371.607C123.073 371.607 122.246 371.425 121.619 371.06C121.003 370.695 120.496 370.205 120.097 369.589L120.815 369.025C121.168 369.583 121.636 370 122.217 370.273C122.81 370.547 123.437 370.684 124.099 370.684C124.68 370.684 125.211 370.575 125.689 370.359C126.18 370.154 126.567 369.84 126.852 369.418C127.149 368.996 127.297 368.466 127.297 367.827V366.066C126.955 366.624 126.488 367.075 125.895 367.417C125.302 367.748 124.68 367.913 124.03 367.913ZM124.355 366.938C124.823 366.938 125.268 366.83 125.689 366.613C126.111 366.396 126.465 366.123 126.75 365.792C127.046 365.45 127.229 365.097 127.297 364.732V361.978C127.126 361.545 126.881 361.163 126.562 360.832C126.242 360.49 125.878 360.228 125.467 360.045C125.057 359.852 124.64 359.755 124.219 359.755C123.557 359.755 122.987 359.937 122.508 360.302C122.041 360.655 121.676 361.111 121.414 361.67C121.163 362.218 121.037 362.788 121.037 363.381C121.037 364.019 121.185 364.612 121.482 365.159C121.778 365.695 122.177 366.128 122.679 366.459C123.181 366.778 123.74 366.938 124.355 366.938ZM134.877 367.964C134.022 367.964 133.258 367.753 132.585 367.331C131.912 366.91 131.382 366.345 130.994 365.638C130.607 364.931 130.413 364.156 130.413 363.312C130.413 362.48 130.601 361.716 130.977 361.02C131.365 360.325 131.895 359.772 132.568 359.361C133.241 358.939 134.004 358.728 134.86 358.728C135.738 358.728 136.507 358.939 137.169 359.361C137.83 359.783 138.343 360.342 138.708 361.037C139.084 361.722 139.272 362.474 139.272 363.295C139.272 363.477 139.267 363.631 139.255 363.757H131.627C131.684 364.395 131.867 364.965 132.174 365.467C132.482 365.957 132.876 366.351 133.355 366.647C133.833 366.932 134.358 367.075 134.928 367.075C135.51 367.075 136.057 366.927 136.57 366.63C137.083 366.334 137.448 365.946 137.665 365.467L138.674 365.741C138.491 366.174 138.206 366.562 137.819 366.904C137.442 367.235 137.003 367.497 136.502 367.691C136 367.873 135.458 367.964 134.877 367.964ZM131.593 362.919H138.178C138.132 362.28 137.955 361.716 137.648 361.226C137.34 360.724 136.946 360.336 136.467 360.062C135.988 359.777 135.458 359.635 134.877 359.635C134.295 359.635 133.765 359.777 133.286 360.062C132.807 360.336 132.414 360.724 132.106 361.226C131.81 361.716 131.639 362.28 131.593 362.919Z" fill="white"/>
<g clip-path="url(#clip3_113_150)">
<path d="M30.7986 461.242C30.4235 460.593 30.1319 459.9 29.9308 459.178C30.3685 458.956 30.7361 458.616 30.9929 458.198C31.2497 457.779 31.3857 457.298 31.3859 456.807C31.3861 456.316 31.2504 455.834 30.9939 455.415C30.7374 454.996 30.3701 454.657 29.9326 454.434C30.3336 452.984 31.0973 451.659 32.1517 450.586C32.5635 450.853 33.0413 451.002 33.5323 451.015C34.0233 451.028 34.5083 450.905 34.9336 450.659C35.359 450.414 35.7081 450.055 35.9423 449.623C36.1765 449.192 36.2867 448.704 36.2607 448.213C37.7178 447.837 39.2467 447.837 40.7034 448.215C40.6776 448.705 40.7881 449.193 41.0225 449.625C41.2569 450.057 41.6061 450.415 42.0315 450.66C42.457 450.906 42.942 451.029 43.433 451.015C43.9239 451.002 44.4017 450.854 44.8133 450.586C45.3271 451.109 45.7832 451.705 46.1665 452.369C46.5507 453.034 46.8381 453.727 47.0342 454.433C46.5965 454.656 46.2289 454.995 45.9721 455.414C45.7153 455.832 45.5793 456.314 45.5791 456.805C45.5789 457.296 45.7146 457.777 45.9711 458.196C46.2276 458.615 46.5949 458.954 47.0325 459.177C46.6314 460.628 45.8677 461.952 44.8133 463.026C44.4016 462.758 43.9237 462.609 43.4327 462.596C42.9417 462.583 42.4567 462.706 42.0314 462.952C41.606 463.198 41.2569 463.556 41.0227 463.988C40.7885 464.42 40.6783 464.908 40.7043 465.398C39.2473 465.775 37.7183 465.774 36.2616 465.396C36.2874 464.906 36.177 464.418 35.9426 463.986C35.7082 463.555 35.3589 463.196 34.9335 462.951C34.5081 462.706 34.023 462.583 33.5321 462.596C33.0411 462.609 32.5633 462.758 32.1517 463.026C31.6273 462.49 31.1726 461.891 30.7986 461.242ZM35.8206 461.416C36.7662 461.961 37.4771 462.837 37.817 463.874C38.2598 463.915 38.7043 463.916 39.1471 463.875C39.4873 462.837 40.1985 461.962 41.1444 461.417C42.0895 460.87 43.2034 460.691 44.2721 460.916C44.5294 460.554 44.7512 460.168 44.9358 459.764C44.2077 458.951 43.8055 457.897 43.8063 456.806C43.8063 455.688 44.2233 454.643 44.9358 453.847C44.7499 453.444 44.5272 453.058 44.2703 452.696C43.2023 452.92 42.0892 452.741 41.1444 452.195C40.1989 451.65 39.488 450.775 39.148 449.737C38.7052 449.696 38.2607 449.695 37.8179 449.737C37.4777 450.774 36.7665 451.649 35.8206 452.194C34.8755 452.741 33.7617 452.92 32.6929 452.696C32.4361 453.058 32.2139 453.444 32.0292 453.847C32.7573 454.661 33.1595 455.714 33.1588 456.806C33.1588 457.924 32.7417 458.968 32.0292 459.764C32.2151 460.167 32.4379 460.553 32.6947 460.916C33.7628 460.692 34.8759 460.87 35.8206 461.416ZM38.4825 459.467C37.7765 459.467 37.0995 459.187 36.6003 458.688C36.1011 458.189 35.8206 457.512 35.8206 456.806C35.8206 456.1 36.1011 455.423 36.6003 454.923C37.0995 454.424 37.7765 454.144 38.4825 454.144C39.1885 454.144 39.8655 454.424 40.3647 454.923C40.8639 455.423 41.1444 456.1 41.1444 456.806C41.1444 457.512 40.8639 458.189 40.3647 458.688C39.8655 459.187 39.1885 459.467 38.4825 459.467ZM38.4825 457.693C38.7178 457.693 38.9435 457.599 39.1099 457.433C39.2763 457.267 39.3698 457.041 39.3698 456.806C39.3698 456.57 39.2763 456.345 39.1099 456.178C38.9435 456.012 38.7178 455.918 38.4825 455.918C38.2472 455.918 38.0215 456.012 37.8551 456.178C37.6887 456.345 37.5952 456.57 37.5952 456.806C37.5952 457.041 37.6887 457.267 37.8551 457.433C38.0215 457.599 38.2472 457.693 38.4825 457.693Z" fill="white"/>
</g>
<path d="M77.034 451.993C76.6919 451.617 76.2358 451.309 75.6657 451.07C75.0956 450.819 74.4456 450.693 73.7159 450.693C72.6441 450.693 71.863 450.899 71.3727 451.309C70.8824 451.708 70.6373 452.256 70.6373 452.951C70.6373 453.43 70.757 453.806 70.9964 454.08C71.2359 454.354 71.6008 454.582 72.0911 454.764C72.5928 454.935 73.2313 455.106 74.0066 455.277C74.8732 455.46 75.6201 455.676 76.2472 455.927C76.8743 456.178 77.3589 456.52 77.701 456.953C78.0431 457.375 78.2141 457.951 78.2141 458.681C78.2141 459.422 78.026 460.038 77.6497 460.528C77.2734 461.018 76.7546 461.383 76.0933 461.623C75.4319 461.851 74.6794 461.965 73.8356 461.965C71.9428 461.965 70.318 461.377 68.9611 460.203L69.5597 459.228C69.993 459.684 70.586 460.078 71.3385 460.408C72.1025 460.739 72.9462 460.904 73.8698 460.904C74.8276 460.904 75.5802 460.727 76.1275 460.374C76.6748 460.021 76.9484 459.496 76.9484 458.8C76.9484 458.299 76.8116 457.9 76.538 457.603C76.2643 457.295 75.8538 457.045 75.3065 456.851C74.7592 456.657 74.0865 456.469 73.2883 456.286C72.4445 456.092 71.7319 455.876 71.1504 455.636C70.5803 455.397 70.147 455.083 69.8505 454.696C69.554 454.308 69.4058 453.783 69.4058 453.122C69.4058 452.37 69.5883 451.737 69.9531 451.224C70.3294 450.699 70.8425 450.306 71.4924 450.044C72.1424 449.77 72.8892 449.633 73.733 449.633C74.5312 449.633 75.2495 449.758 75.888 450.009C76.5266 450.249 77.1024 450.591 77.6155 451.036L77.034 451.993ZM83.9339 462.033C83.0787 462.033 82.3147 461.822 81.642 461.4C80.9693 460.978 80.4391 460.414 80.0514 459.707C79.6637 459 79.4699 458.225 79.4699 457.381C79.4699 456.549 79.658 455.785 80.0343 455.089C80.422 454.394 80.9522 453.84 81.6249 453.43C82.2976 453.008 83.0616 452.797 83.9168 452.797C84.7947 452.797 85.5644 453.008 86.2257 453.43C86.8871 453.852 87.4002 454.411 87.765 455.106C88.1413 455.79 88.3295 456.543 88.3295 457.364C88.3295 457.546 88.3238 457.7 88.3124 457.826H80.6842C80.7412 458.464 80.9237 459.034 81.2315 459.536C81.5394 460.026 81.9328 460.42 82.4117 460.716C82.8906 461.001 83.4151 461.144 83.9852 461.144C84.5667 461.144 85.114 460.995 85.6271 460.699C86.1402 460.403 86.5051 460.015 86.7217 459.536L87.7308 459.81C87.5484 460.243 87.2633 460.631 86.8757 460.973C86.4994 461.303 86.0604 461.566 85.5587 461.759C85.057 461.942 84.5154 462.033 83.9339 462.033ZM80.65 456.988H87.2348C87.1892 456.349 87.0125 455.785 86.7046 455.294C86.3968 454.793 86.0034 454.405 85.5245 454.131C85.0456 453.846 84.5154 453.704 83.9339 453.704C83.3523 453.704 82.8221 453.846 82.3432 454.131C81.8643 454.405 81.471 454.793 81.1631 455.294C80.8666 455.785 80.6956 456.349 80.65 456.988ZM94.3162 461.434C94.1794 461.491 93.9285 461.594 93.5636 461.742C93.1988 461.891 92.7769 461.965 92.298 461.965C91.7963 461.965 91.3573 461.822 90.981 461.537C90.6047 461.252 90.4166 460.824 90.4166 460.254V453.875H89.1852V452.951H90.4166V449.941H91.5796V452.951H93.6321V453.875H91.5796V459.929C91.6024 460.26 91.7165 460.505 91.9217 460.665C92.1384 460.813 92.3835 460.887 92.6572 460.887C92.9764 460.887 93.2615 460.836 93.5123 460.733C93.7746 460.619 93.9399 460.539 94.0083 460.494L94.3162 461.434ZM100.045 461.434C99.9084 461.491 99.6575 461.594 99.2926 461.742C98.9278 461.891 98.5059 461.965 98.027 461.965C97.5253 461.965 97.0863 461.822 96.71 461.537C96.3337 461.252 96.1456 460.824 96.1456 460.254V453.875H94.9141V452.951H96.1456V449.941H97.3086V452.951H99.361V453.875H97.3086V459.929C97.3314 460.26 97.4455 460.505 97.6507 460.665C97.8673 460.813 98.1125 460.887 98.3862 460.887C98.7054 460.887 98.9905 460.836 99.2413 460.733C99.5036 460.619 99.6689 460.539 99.7373 460.494L100.045 461.434ZM101.498 451.087V449.376H102.661V451.087H101.498ZM101.498 461.862V452.951H102.661V461.862H101.498ZM112.714 461.862H111.551V456.885C111.551 455.836 111.392 455.072 111.072 454.593C110.765 454.103 110.286 453.858 109.636 453.858C109.18 453.858 108.729 453.972 108.285 454.2C107.84 454.416 107.446 454.718 107.104 455.106C106.774 455.482 106.534 455.916 106.386 456.406V461.862H105.223V452.951H106.283V454.969C106.637 454.319 107.156 453.795 107.84 453.396C108.524 452.997 109.265 452.797 110.063 452.797C110.725 452.797 111.249 452.957 111.637 453.276C112.024 453.584 112.298 454.029 112.458 454.61C112.629 455.18 112.714 455.859 112.714 456.645V461.862ZM118.769 461.982C118.153 461.982 117.589 461.856 117.076 461.605C116.574 461.355 116.135 461.018 115.759 460.596C115.394 460.163 115.109 459.673 114.904 459.125C114.698 458.578 114.596 458.014 114.596 457.432C114.596 456.6 114.773 455.836 115.126 455.14C115.479 454.433 115.964 453.869 116.58 453.447C117.207 453.014 117.925 452.797 118.735 452.797C119.499 452.797 120.16 452.991 120.719 453.379C121.289 453.766 121.768 454.245 122.156 454.815V452.951H123.199V461.896C123.199 462.729 122.999 463.424 122.6 463.983C122.201 464.542 121.671 464.963 121.01 465.248C120.348 465.534 119.624 465.676 118.837 465.676C117.811 465.676 116.985 465.494 116.357 465.129C115.742 464.764 115.234 464.274 114.835 463.658L115.554 463.093C115.907 463.652 116.375 464.068 116.956 464.342C117.549 464.616 118.176 464.752 118.837 464.752C119.419 464.752 119.949 464.644 120.428 464.428C120.918 464.222 121.306 463.909 121.591 463.487C121.888 463.065 122.036 462.535 122.036 461.896V460.135C121.694 460.693 121.226 461.144 120.633 461.486C120.04 461.816 119.419 461.982 118.769 461.982ZM119.094 461.007C119.562 461.007 120.006 460.899 120.428 460.682C120.85 460.465 121.203 460.192 121.489 459.861C121.785 459.519 121.967 459.165 122.036 458.8V456.047C121.865 455.614 121.62 455.232 121.3 454.901C120.981 454.559 120.616 454.297 120.206 454.114C119.795 453.92 119.379 453.823 118.957 453.823C118.296 453.823 117.726 454.006 117.247 454.371C116.779 454.724 116.414 455.18 116.152 455.739C115.901 456.286 115.776 456.856 115.776 457.449C115.776 458.088 115.924 458.681 116.221 459.228C116.517 459.764 116.916 460.197 117.418 460.528C117.92 460.847 118.478 461.007 119.094 461.007Z" fill="white"/>
<path d="M77.936 97.1378V84.9944H82.9644C83.4889 84.9944 83.9678 85.1027 84.4011 85.3193C84.8458 85.536 85.2278 85.8324 85.5471 86.2087C85.8777 86.5736 86.1286 86.9841 86.2996 87.4402C86.4821 87.8848 86.5733 88.3409 86.5733 88.8084C86.5733 89.4698 86.425 90.0969 86.1286 90.6898C85.8321 91.2713 85.4216 91.7445 84.8971 92.1094C84.3726 92.4743 83.7626 92.6567 83.0671 92.6567H79.1333V97.1378H77.936ZM79.1333 91.5963H83.0158C83.4946 91.5963 83.9108 91.4652 84.2643 91.2029C84.6178 90.9407 84.8914 90.5986 85.0853 90.1767C85.2791 89.7548 85.376 89.2987 85.376 88.8084C85.376 88.3067 85.262 87.8506 85.034 87.4402C84.8059 87.0183 84.5038 86.6819 84.1275 86.4311C83.7626 86.1802 83.3578 86.0548 82.9131 86.0548H79.1333V91.5963ZM92.783 89.2531C92.0077 89.2759 91.3235 89.4926 90.7306 89.9031C90.1491 90.3135 89.7386 90.878 89.4992 91.5963V97.1378H88.3361V88.2269H89.4307V90.3648C89.7386 89.7377 90.1434 89.2303 90.6451 88.8426C91.1582 88.455 91.6998 88.2383 92.2699 88.1927C92.3839 88.1813 92.4809 88.1756 92.5607 88.1756C92.6405 88.1756 92.7146 88.1813 92.783 88.1927V89.2531ZM97.8621 97.3089C97.0069 97.3089 96.243 97.0979 95.5702 96.676C94.9089 96.2541 94.3901 95.6954 94.0138 94.9999C93.6375 94.2929 93.4494 93.529 93.4494 92.708C93.4494 91.8757 93.6375 91.1117 94.0138 90.4162C94.4015 89.7092 94.926 89.1448 95.5873 88.7229C96.2601 88.2896 97.0183 88.073 97.8621 88.073C98.7173 88.073 99.4755 88.2896 100.137 88.7229C100.81 89.1448 101.334 89.7092 101.71 90.4162C102.098 91.1117 102.292 91.8757 102.292 92.708C102.292 93.529 102.104 94.2929 101.727 94.9999C101.351 95.6954 100.827 96.2541 100.154 96.676C99.4926 97.0979 98.7287 97.3089 97.8621 97.3089ZM94.6295 92.7251C94.6295 93.3865 94.7721 93.9908 95.0571 94.5381C95.3536 95.074 95.747 95.5016 96.2373 95.8209C96.7276 96.1287 97.2692 96.2826 97.8621 96.2826C98.455 96.2826 98.9966 96.123 99.4869 95.8037C99.9772 95.4845 100.371 95.0512 100.667 94.5039C100.964 93.9566 101.112 93.3523 101.112 92.6909C101.112 92.0296 100.964 91.4253 100.667 90.878C100.371 90.3306 99.9772 89.8974 99.4869 89.5781C98.9966 89.2588 98.455 89.0992 97.8621 89.0992C97.2806 89.0992 96.7447 89.2645 96.2544 89.5952C95.7641 89.9145 95.3707 90.3477 95.0742 90.8951C94.7778 91.4424 94.6295 92.0524 94.6295 92.7251ZM104.514 89.1505H103.283V88.2269H104.514V87.9875C104.514 87.4288 104.623 86.8814 104.839 86.3455C105.067 85.8096 105.409 85.3649 105.865 85.0115C106.333 84.658 106.932 84.4813 107.661 84.4813C108.288 84.4813 108.824 84.5782 109.269 84.772C109.725 84.9659 110.05 85.1369 110.244 85.2851L109.714 86.1232C109.52 85.9522 109.246 85.8096 108.893 85.6956C108.539 85.5702 108.152 85.5075 107.73 85.5075C107.239 85.5075 106.846 85.6329 106.55 85.8837C106.253 86.1232 106.031 86.4311 105.883 86.8073C105.746 87.1836 105.677 87.5656 105.677 87.9533V88.2269H110.141V97.1378H108.978V89.1505H105.677V97.1378H104.514V89.1505ZM112.757 84.6523H113.92V95.1196C113.92 95.5643 113.994 95.8551 114.142 95.9919C114.302 96.1287 114.501 96.1971 114.741 96.1971C114.946 96.1971 115.151 96.1743 115.356 96.1287C115.573 96.0831 115.75 96.0375 115.886 95.9919L116.092 96.9326C115.875 97.0238 115.607 97.0979 115.288 97.1549C114.98 97.2119 114.712 97.2404 114.484 97.2404C113.959 97.2404 113.538 97.0865 113.218 96.7786C112.91 96.4708 112.757 96.0489 112.757 95.513V84.6523ZM121.214 97.3089C120.358 97.3089 119.594 97.0979 118.922 96.676C118.249 96.2541 117.719 95.6897 117.331 94.9828C116.943 94.2758 116.75 93.5005 116.75 92.6567C116.75 91.8243 116.938 91.0604 117.314 90.3648C117.702 89.6693 118.232 89.1163 118.905 88.7058C119.577 88.2839 120.341 88.073 121.196 88.073C122.074 88.073 122.844 88.2839 123.505 88.7058C124.167 89.1277 124.68 89.6864 125.045 90.382C125.421 91.0661 125.609 91.8186 125.609 92.6396C125.609 92.822 125.603 92.976 125.592 93.1014H117.964C118.021 93.7399 118.203 94.31 118.511 94.8117C118.819 95.302 119.212 95.6954 119.691 95.9919C120.17 96.2769 120.695 96.4195 121.265 96.4195C121.846 96.4195 122.394 96.2712 122.907 95.9748C123.42 95.6783 123.785 95.2906 124.001 94.8117L125.01 95.0854C124.828 95.5187 124.543 95.9064 124.155 96.2484C123.779 96.5791 123.34 96.8414 122.838 97.0352C122.337 97.2176 121.795 97.3089 121.214 97.3089ZM117.93 92.2633H124.514C124.469 91.6248 124.292 91.0604 123.984 90.5701C123.676 90.0684 123.283 89.6807 122.804 89.4071C122.325 89.122 121.795 88.9795 121.214 88.9795C120.632 88.9795 120.102 89.122 119.623 89.4071C119.144 89.6807 118.751 90.0684 118.443 90.5701C118.146 91.0604 117.975 91.6248 117.93 92.2633Z" fill="white"/>
<g clip-path="url(#clip4_113_150)">
<path d="M44.8968 99.0431H43.2934V97.4397C43.2934 96.8018 43.04 96.19 42.5889 95.739C42.1378 95.2879 41.5261 95.0345 40.8882 95.0345H36.0778C35.4399 95.0345 34.8282 95.2879 34.3771 95.739C33.9261 96.19 33.6727 96.8018 33.6727 97.4397V99.0431H32.0692V97.4397C32.0692 96.3765 32.4915 95.3569 33.2433 94.6051C33.9951 93.8534 35.0147 93.431 36.0778 93.431H40.8882C41.9513 93.431 42.9709 93.8534 43.7227 94.6051C44.4745 95.3569 44.8968 96.3765 44.8968 97.4397V99.0431ZM38.483 91.8276C37.8513 91.8276 37.2258 91.7032 36.6422 91.4614C36.0585 91.2197 35.5283 90.8654 35.0816 90.4187C34.6349 89.972 34.2806 89.4417 34.0388 88.8581C33.7971 88.2745 33.6727 87.649 33.6727 87.0173C33.6727 86.3856 33.7971 85.76 34.0388 85.1764C34.2806 84.5928 34.6349 84.0625 35.0816 83.6158C35.5283 83.1691 36.0585 82.8148 36.6422 82.5731C37.2258 82.3313 37.8513 82.2069 38.483 82.2069C39.7588 82.2069 40.9823 82.7137 41.8844 83.6158C42.7865 84.5179 43.2934 85.7415 43.2934 87.0173C43.2934 88.293 42.7865 89.5166 41.8844 90.4187C40.9823 91.3208 39.7588 91.8276 38.483 91.8276ZM38.483 90.2242C39.3335 90.2242 40.1492 89.8863 40.7506 89.2849C41.352 88.6835 41.6899 87.8678 41.6899 87.0173C41.6899 86.1667 41.352 85.351 40.7506 84.7496C40.1492 84.1482 39.3335 83.8104 38.483 83.8104C37.6325 83.8104 36.8168 84.1482 36.2154 84.7496C35.614 85.351 35.2761 86.1667 35.2761 87.0173C35.2761 87.8678 35.614 88.6835 36.2154 89.2849C36.8168 89.8863 37.6325 90.2242 38.483 90.2242Z" fill="white"/>
</g>
<g clip-path="url(#clip5_113_150)">
<path d="M38.4828 524.897C33.7596 524.897 29.931 521.068 29.931 516.345C29.931 511.622 33.7596 507.793 38.4828 507.793C43.2059 507.793 47.0345 511.622 47.0345 516.345C47.0345 521.068 43.2059 524.897 38.4828 524.897ZM38.4828 523.186C40.2972 523.186 42.0373 522.465 43.3203 521.182C44.6033 519.899 45.3241 518.159 45.3241 516.345C45.3241 514.53 44.6033 512.79 43.3203 511.507C42.0373 510.224 40.2972 509.503 38.4828 509.503C36.6683 509.503 34.9282 510.224 33.6452 511.507C32.3622 512.79 31.6414 514.53 31.6414 516.345C31.6414 518.159 32.3622 519.899 33.6452 521.182C34.9282 522.465 36.6683 523.186 38.4828 523.186ZM37.6276 518.91H39.3379V520.621H37.6276V518.91ZM39.3379 517.504V518.055H37.6276V516.772C37.6276 516.546 37.7177 516.328 37.8781 516.168C38.0384 516.007 38.2559 515.917 38.4828 515.917C38.7257 515.917 38.9636 515.848 39.1689 515.718C39.3741 515.588 39.5383 515.403 39.6422 515.183C39.7461 514.964 39.7855 514.719 39.7558 514.478C39.7262 514.237 39.6286 514.009 39.4746 513.821C39.3206 513.633 39.1164 513.493 38.8857 513.417C38.6551 513.34 38.4075 513.331 38.1718 513.39C37.9361 513.449 37.722 513.573 37.5544 513.749C37.3867 513.925 37.2724 514.145 37.2248 514.383L35.5469 514.047C35.651 513.527 35.8912 513.044 36.243 512.648C36.5948 512.251 37.0457 511.955 37.5494 511.79C38.0532 511.624 38.5918 511.596 39.1102 511.707C39.6286 511.818 40.1082 512.065 40.5 512.422C40.8917 512.779 41.1816 513.234 41.34 513.74C41.4984 514.246 41.5195 514.785 41.4013 515.302C41.2832 515.819 41.0298 516.295 40.6673 516.682C40.3048 517.069 39.846 517.352 39.3379 517.504Z" fill="white"/>
</g>
<path d="M79.514 509.581V521.724H78.3338V516.046H71.1333V521.724H69.936V509.581H71.1333V514.985H78.3338V509.581H79.514ZM86.0384 521.895C85.1832 521.895 84.4193 521.684 83.7465 521.262C83.0738 520.84 82.5436 520.276 82.1559 519.569C81.7682 518.862 81.5744 518.087 81.5744 517.243C81.5744 516.411 81.7625 515.647 82.1388 514.951C82.5265 514.256 83.0567 513.703 83.7294 513.292C84.4022 512.87 85.1661 512.659 86.0213 512.659C86.8993 512.659 87.6689 512.87 88.3303 513.292C88.9916 513.714 89.5047 514.273 89.8696 514.968C90.2458 515.652 90.434 516.405 90.434 517.226C90.434 517.408 90.4283 517.562 90.4169 517.688H82.7887C82.8457 518.326 83.0282 518.896 83.336 519.398C83.6439 519.888 84.0373 520.282 84.5162 520.578C84.9951 520.863 85.5196 521.006 86.0897 521.006C86.6712 521.006 87.2185 520.857 87.7316 520.561C88.2447 520.265 88.6096 519.877 88.8263 519.398L89.8354 519.672C89.6529 520.105 89.3679 520.493 88.9802 520.835C88.6039 521.165 88.1649 521.428 87.6632 521.621C87.1615 521.804 86.6199 521.895 86.0384 521.895ZM82.7545 516.85H89.3394C89.2937 516.211 89.117 515.647 88.8092 515.156C88.5013 514.655 88.1079 514.267 87.629 513.993C87.1501 513.708 86.6199 513.566 86.0384 513.566C85.4569 513.566 84.9267 513.708 84.4478 513.993C83.9689 514.267 83.5755 514.655 83.2676 515.156C82.9712 515.647 82.8001 516.211 82.7545 516.85ZM92.2797 509.239H93.4427V519.706C93.4427 520.151 93.5168 520.441 93.6651 520.578C93.8247 520.715 94.0242 520.783 94.2637 520.783C94.4689 520.783 94.6742 520.761 94.8794 520.715C95.0961 520.669 95.2728 520.624 95.4096 520.578L95.6149 521.519C95.3982 521.61 95.1303 521.684 94.811 521.741C94.5031 521.798 94.2352 521.827 94.0071 521.827C93.4826 521.827 93.0607 521.673 92.7415 521.365C92.4336 521.057 92.2797 520.635 92.2797 520.099V509.239ZM101.438 521.895C100.697 521.895 100.03 521.701 99.4368 521.314C98.8553 520.926 98.3935 520.447 98.0514 519.877V525.367H96.8884V512.813H97.9317V514.541C98.2852 513.982 98.7527 513.532 99.3342 513.189C99.9271 512.836 100.566 512.659 101.25 512.659C101.866 512.659 102.43 512.79 102.943 513.053C103.456 513.303 103.901 513.646 104.277 514.079C104.665 514.512 104.961 515.008 105.166 515.567C105.372 516.114 105.474 516.684 105.474 517.277C105.474 518.11 105.303 518.879 104.961 519.586C104.631 520.282 104.157 520.84 103.542 521.262C102.937 521.684 102.236 521.895 101.438 521.895ZM101.113 520.869C101.763 520.869 102.322 520.698 102.789 520.356C103.268 520.002 103.639 519.552 103.901 519.005C104.163 518.457 104.294 517.881 104.294 517.277C104.294 516.639 104.146 516.046 103.85 515.498C103.553 514.951 103.154 514.512 102.652 514.181C102.162 513.851 101.603 513.685 100.976 513.685C100.588 513.685 100.178 513.788 99.7447 513.993C99.3228 514.187 98.9465 514.455 98.6158 514.797C98.2966 515.128 98.1084 515.493 98.0514 515.892V518.628C98.3137 519.255 98.7242 519.786 99.2829 520.219C99.8416 520.652 100.452 520.869 101.113 520.869Z" fill="white"/>
<g clip-path="url(#clip6_113_150)">
<path d="M33.5783 569.201L34.5592 570.602C33.3673 571.437 32.4724 572.629 32.0046 574.007C31.5368 575.385 31.5205 576.876 31.9579 578.264C32.3954 579.651 33.2639 580.863 34.4373 581.724C35.6106 582.584 37.0277 583.048 38.4828 583.048C39.9378 583.048 41.3549 582.584 42.5283 581.724C43.7016 580.863 44.5701 579.651 45.0076 578.264C45.4451 576.876 45.4287 575.385 44.9609 574.007C44.4931 572.629 43.5982 571.437 42.4063 570.602L43.3872 569.201C44.5142 569.988 45.4344 571.037 46.0694 572.257C46.7044 573.477 47.0355 574.832 47.0345 576.207C47.0345 580.93 43.2059 584.759 38.4828 584.759C33.7596 584.759 29.931 580.93 29.931 576.207C29.93 574.832 30.2611 573.477 30.8961 572.257C31.5311 571.037 32.4513 569.988 33.5783 569.201ZM37.6276 576.207V567.655H39.3379V576.207H37.6276Z" fill="white"/>
</g>
<path d="M69.936 580.517V568.374H71.1333V579.457H78.1457V580.517H69.936ZM83.2813 580.688C82.4261 580.688 81.6621 580.477 80.9894 580.055C80.3281 579.634 79.8093 579.075 79.433 578.379C79.0567 577.672 78.8686 576.908 78.8686 576.087C78.8686 575.255 79.0567 574.491 79.433 573.796C79.8207 573.089 80.3452 572.524 81.0065 572.102C81.6792 571.669 82.4375 571.452 83.2813 571.452C84.1364 571.452 84.8947 571.669 85.556 572.102C86.2288 572.524 86.7533 573.089 87.1295 573.796C87.5172 574.491 87.7111 575.255 87.7111 576.087C87.7111 576.908 87.5229 577.672 87.1466 578.379C86.7704 579.075 86.2459 579.634 85.5731 580.055C84.9118 580.477 84.1478 580.688 83.2813 580.688ZM80.0487 576.105C80.0487 576.766 80.1912 577.37 80.4763 577.918C80.7728 578.453 81.1661 578.881 81.6564 579.2C82.1467 579.508 82.6883 579.662 83.2813 579.662C83.8742 579.662 84.4158 579.502 84.9061 579.183C85.3964 578.864 85.7898 578.431 86.0862 577.883C86.3827 577.336 86.5309 576.732 86.5309 576.07C86.5309 575.409 86.3827 574.805 86.0862 574.257C85.7898 573.71 85.3964 573.277 84.9061 572.958C84.4158 572.638 83.8742 572.479 83.2813 572.479C82.6997 572.479 82.1638 572.644 81.6735 572.975C81.1832 573.294 80.7899 573.727 80.4934 574.275C80.1969 574.822 80.0487 575.432 80.0487 576.105ZM93.2308 580.637C92.6151 580.637 92.0507 580.512 91.5376 580.261C91.0359 580.01 90.5969 579.674 90.2206 579.252C89.8557 578.818 89.5707 578.328 89.3654 577.781C89.1602 577.233 89.0576 576.669 89.0576 576.087C89.0576 575.255 89.2343 574.491 89.5878 573.796C89.9412 573.089 90.4258 572.524 91.0416 572.102C91.6687 571.669 92.387 571.452 93.1966 571.452C93.9605 571.452 94.6219 571.646 95.1806 572.034C95.7507 572.422 96.2296 572.901 96.6173 573.471V571.606H97.6606V580.551C97.6606 581.384 97.461 582.079 97.062 582.638C96.6629 583.197 96.1327 583.619 95.4713 583.904C94.81 584.189 94.086 584.331 93.2992 584.331C92.273 584.331 91.4463 584.149 90.8192 583.784C90.2035 583.419 89.6961 582.929 89.297 582.313L90.0153 581.749C90.3688 582.307 90.8363 582.724 91.4178 582.997C92.0107 583.271 92.6379 583.408 93.2992 583.408C93.8807 583.408 94.4109 583.299 94.8898 583.083C95.3801 582.878 95.7678 582.564 96.0529 582.142C96.3493 581.72 96.4976 581.19 96.4976 580.551V578.79C96.1555 579.349 95.688 579.799 95.0951 580.141C94.5022 580.472 93.8807 580.637 93.2308 580.637ZM93.5558 579.662C94.0233 579.662 94.4679 579.554 94.8898 579.337C95.3117 579.12 95.6652 578.847 95.9502 578.516C96.2467 578.174 96.4291 577.821 96.4976 577.456V574.702C96.3265 574.269 96.0814 573.887 95.7621 573.556C95.4428 573.214 95.078 572.952 94.6675 572.769C94.257 572.576 93.8408 572.479 93.4189 572.479C92.7576 572.479 92.1875 572.661 91.7086 573.026C91.2411 573.379 90.8762 573.836 90.614 574.394C90.3631 574.942 90.2377 575.512 90.2377 576.105C90.2377 576.743 90.3859 577.336 90.6824 577.883C90.9788 578.419 91.3779 578.853 91.8796 579.183C92.3813 579.502 92.94 579.662 93.5558 579.662ZM104.026 580.688C103.171 580.688 102.407 580.477 101.734 580.055C101.073 579.634 100.554 579.075 100.178 578.379C99.8013 577.672 99.6132 576.908 99.6132 576.087C99.6132 575.255 99.8013 574.491 100.178 573.796C100.565 573.089 101.09 572.524 101.751 572.102C102.424 571.669 103.182 571.452 104.026 571.452C104.881 571.452 105.639 571.669 106.301 572.102C106.973 572.524 107.498 573.089 107.874 573.796C108.262 574.491 108.456 575.255 108.456 576.087C108.456 576.908 108.268 577.672 107.891 578.379C107.515 579.075 106.99 579.634 106.318 580.055C105.656 580.477 104.892 580.688 104.026 580.688ZM100.793 576.105C100.793 576.766 100.936 577.37 101.221 577.918C101.517 578.453 101.911 578.881 102.401 579.2C102.891 579.508 103.433 579.662 104.026 579.662C104.619 579.662 105.16 579.502 105.651 579.183C106.141 578.864 106.534 578.431 106.831 577.883C107.127 577.336 107.276 576.732 107.276 576.07C107.276 575.409 107.127 574.805 106.831 574.257C106.534 573.71 106.141 573.277 105.651 572.958C105.16 572.638 104.619 572.479 104.026 572.479C103.444 572.479 102.908 572.644 102.418 572.975C101.928 573.294 101.534 573.727 101.238 574.275C100.942 574.822 100.793 575.432 100.793 576.105ZM110.315 576.84V571.606H111.478V576.635C111.478 578.653 112.168 579.662 113.548 579.662C114.232 579.662 114.87 579.44 115.463 578.995C116.068 578.55 116.501 577.957 116.763 577.216V571.606H117.926V579.115C117.926 579.423 118.063 579.582 118.337 579.594V580.517C118.2 580.54 118.092 580.551 118.012 580.551C117.943 580.551 117.869 580.551 117.789 580.551C117.55 580.529 117.345 580.437 117.174 580.278C117.014 580.118 116.934 579.924 116.934 579.696L116.9 578.499C116.512 579.195 115.982 579.736 115.309 580.124C114.648 580.5 113.93 580.688 113.154 580.688C111.262 580.688 110.315 579.406 110.315 576.84ZM124.832 580.09C124.695 580.147 124.444 580.249 124.079 580.398C123.714 580.546 123.293 580.62 122.814 580.62C122.312 580.62 121.873 580.477 121.497 580.192C121.12 579.907 120.932 579.48 120.932 578.91V572.53H119.701V571.606H120.932V568.596H122.095V571.606H124.148V572.53H122.095V578.585C122.118 578.915 122.232 579.16 122.437 579.32C122.654 579.468 122.899 579.542 123.173 579.542C123.492 579.542 123.777 579.491 124.028 579.388C124.29 579.274 124.456 579.195 124.524 579.149L124.832 580.09Z" fill="white"/>
<path d="M176.379 194.655H1.06897" stroke="white" stroke-opacity="0.5" stroke-width="1.06897" stroke-linecap="round" stroke-linejoin="round"/>
<path d="M176.379 408.448H1.06897" stroke="white" stroke-opacity="0.5" stroke-width="1.06897" stroke-linecap="round" stroke-linejoin="round"/>
<defs>
<clipPath id="clip0_113_150">
<rect width="25.6552" height="25.6552" fill="white" transform="translate(25.6553 8.51723)"/>
</clipPath>
<clipPath id="clip1_113_150">
<rect width="25.6552" height="25.6552" fill="white" transform="translate(25.6553 230.862)"/>
</clipPath>
<clipPath id="clip2_113_150">
<rect width="25.6552" height="25.6552" fill="white" transform="translate(25.6553 350.586)"/>
</clipPath>
<clipPath id="clip3_113_150">
<rect width="25.6552" height="25.6552" fill="white" transform="translate(25.6553 444.655)"/>
</clipPath>
<clipPath id="clip4_113_150">
<rect width="25.6552" height="25.6552" fill="white" transform="translate(25.6553 76.931)"/>
</clipPath>
<clipPath id="clip5_113_150">
<rect width="25.6552" height="25.6552" fill="white" transform="translate(25.6553 504.517)"/>
</clipPath>
<clipPath id="clip6_113_150">
<rect width="25.6552" height="25.6552" fill="white" transform="translate(25.6553 564.379)"/>
</clipPath>
</defs>
</svg>
