<svg width="20" height="22" viewBox="0 0 20 22" fill="none" xmlns="http://www.w3.org/2000/svg">
<path d="M14.8529 4.97405L15.2279 5.62357H15.2279L14.8529 4.97405ZM18.0403 5.82811L18.6898 5.45311L18.6898 5.45311L18.0403 5.82811ZM18.6237 6.83848L17.9741 7.21348V7.21348L18.6237 6.83848ZM17.7696 10.0259L18.1446 10.6754L17.7696 10.0259ZM17.7696 11.9741L17.3946 12.6236L17.7696 11.9741ZM18.6237 15.1614L19.2732 15.5364L18.6237 15.1614ZM18.0404 16.1718L17.3908 15.7968L18.0404 16.1718ZM14.853 17.0259L15.228 16.3763H15.228L14.853 17.0259ZM5.64525 17.0259L5.27025 16.3763H5.27025L5.64525 17.0259ZM2.45785 16.1718L3.10737 15.7968V15.7968L2.45785 16.1718ZM1.87452 15.1614L1.225 15.5364H1.225L1.87452 15.1614ZM2.72858 11.9741L2.35358 11.3245H2.35358L2.72858 11.9741ZM2.72861 10.0259L2.35361 10.6754L2.72861 10.0259ZM1.87455 6.83848L1.22503 6.46348H1.22503L1.87455 6.83848ZM2.45788 5.82811L3.1074 6.20311V6.20311L2.45788 5.82811ZM5.64527 4.97405L5.27027 5.62357L5.64527 4.97405ZM9.66566 0.916656C7.96279 0.916656 6.58233 2.29711 6.58233 3.99999H8.08233C8.08233 3.12554 8.79121 2.41666 9.66566 2.41666V0.916656ZM10.8323 0.916656H9.66566V2.41666H10.8323V0.916656ZM13.9157 3.99999C13.9157 2.29711 12.5352 0.916656 10.8323 0.916656V2.41666C11.7068 2.41666 12.4157 3.12554 12.4157 3.99999H13.9157ZM18.6898 5.45311C17.8384 3.97838 15.9527 3.4731 14.4779 4.32453L15.2279 5.62357C15.9852 5.18635 16.9536 5.44582 17.3908 6.20311L18.6898 5.45311ZM19.2732 6.46348L18.6898 5.45311L17.3908 6.20311L17.9741 7.21348L19.2732 6.46348ZM18.1446 10.6754C19.6193 9.82395 20.1246 7.93821 19.2732 6.46348L17.9741 7.21348C18.4114 7.97077 18.1519 8.93912 17.3946 9.37635L18.1446 10.6754ZM19.2732 15.5364C20.1246 14.0617 19.6194 12.176 18.1446 11.3245L17.3946 12.6236C18.1519 13.0608 18.4114 14.0291 17.9742 14.7864L19.2732 15.5364ZM18.6899 16.5468L19.2732 15.5364L17.9742 14.7864L17.3908 15.7968L18.6899 16.5468ZM14.478 17.6754C15.9527 18.5268 17.8384 18.0215 18.6899 16.5468L17.3908 15.7968C16.9536 16.5541 15.9853 16.8136 15.228 16.3763L14.478 17.6754ZM10.8323 21.0833C12.5352 21.0833 13.9157 19.7029 13.9157 18H12.4157C12.4157 18.8744 11.7068 19.5833 10.8323 19.5833V21.0833ZM9.66566 21.0833H10.8323V19.5833H9.66566V21.0833ZM6.58233 18C6.58233 19.7029 7.96279 21.0833 9.66566 21.0833V19.5833C8.79121 19.5833 8.08233 18.8744 8.08233 18H6.58233ZM1.80833 16.5468C2.65977 18.0215 4.54551 18.5268 6.02025 17.6754L5.27025 16.3763C4.51295 16.8136 3.5446 16.5541 3.10737 15.7968L1.80833 16.5468ZM1.225 15.5364L1.80833 16.5468L3.10737 15.7968L2.52404 14.7864L1.225 15.5364ZM2.35358 11.3245C0.878844 12.176 0.373562 14.0617 1.225 15.5364L2.52404 14.7864C2.08681 14.0291 2.34628 13.0608 3.10358 12.6236L2.35358 11.3245ZM1.22503 6.46348C0.373589 7.93821 0.878871 9.82395 2.35361 10.6754L3.10361 9.37635C2.34631 8.93912 2.08684 7.97077 2.52407 7.21348L1.22503 6.46348ZM1.80836 5.45311L1.22503 6.46348L2.52407 7.21348L3.1074 6.20311L1.80836 5.45311ZM6.02027 4.32453C4.54554 3.4731 2.6598 3.97838 1.80836 5.45311L3.1074 6.20311C3.54463 5.44582 4.51298 5.18635 5.27027 5.62357L6.02027 4.32453ZM5.27027 5.62357C6.52012 6.34517 8.08233 5.44309 8.08233 3.99999H6.58233C6.58233 4.28848 6.27004 4.46874 6.02027 4.32453L5.27027 5.62357ZM3.10358 12.6236C4.3534 11.902 4.35349 10.098 3.10361 9.37635L2.35361 10.6754C2.60343 10.8196 2.60346 11.1803 2.35358 11.3245L3.10358 12.6236ZM8.08233 18C8.08233 16.5569 6.52014 15.6547 5.27025 16.3763L6.02025 17.6754C6.26998 17.5312 6.58233 17.7114 6.58233 18H8.08233ZM15.228 16.3763C13.9781 15.6547 12.4157 16.5567 12.4157 18H13.9157C13.9157 17.7115 14.228 17.5311 14.478 17.6754L15.228 16.3763ZM17.3946 9.37635C16.1447 10.098 16.1448 11.902 17.3946 12.6236L18.1446 11.3245C17.8947 11.1803 17.8948 10.8196 18.1446 10.6754L17.3946 9.37635ZM12.4157 3.99999C12.4157 5.44331 13.9782 6.34514 15.2279 5.62357L14.4779 4.32453C14.228 4.46884 13.9157 4.28842 13.9157 3.99999H12.4157ZM12.0445 10.9999C12.0445 11.9915 11.2407 12.7954 10.2491 12.7954V14.2954C12.0691 14.2954 13.5445 12.8199 13.5445 10.9999H12.0445ZM10.2491 12.7954C9.25746 12.7954 8.45361 11.9915 8.45361 10.9999H6.95361C6.95361 12.8199 8.42903 14.2954 10.2491 14.2954V12.7954ZM8.45361 10.9999C8.45361 10.0083 9.25746 9.20446 10.2491 9.20446V7.70446C8.42903 7.70446 6.95361 9.17988 6.95361 10.9999H8.45361ZM10.2491 9.20446C11.2407 9.20446 12.0445 10.0083 12.0445 10.9999H13.5445C13.5445 9.17988 12.0691 7.70446 10.2491 7.70446V9.20446Z" fill="#131214"/>
</svg>
